<svg width="70" height="70" viewBox="0 0 70 70" fill="none" xmlns="http://www.w3.org/2000/svg">
<g id="at-sign">
<path id="Vector" d="M35 46.6667C41.4433 46.6667 46.6667 41.4433 46.6667 35C46.6667 28.5567 41.4433 23.3333 35 23.3333C28.5567 23.3333 23.3333 28.5567 23.3333 35C23.3333 41.4433 28.5567 46.6667 35 46.6667Z" stroke="black" stroke-width="5.83333" stroke-linecap="round" stroke-linejoin="round"/>
<path id="Vector_2" d="M46.6667 23.3333V37.9167C46.6667 40.2373 47.5886 42.4629 49.2295 44.1038C50.8704 45.7448 53.096 46.6667 55.4167 46.6667C57.7373 46.6667 59.9629 45.7448 61.6039 44.1038C63.2448 42.4629 64.1667 40.2373 64.1667 37.9167V35C64.1663 28.4172 61.939 22.0281 57.8471 16.8715C53.7551 11.715 48.0391 8.0944 41.6285 6.59836C35.218 5.10232 28.4898 5.81886 22.5381 8.63148C16.5864 11.4441 11.7612 16.1874 8.84701 22.09C5.93285 27.9927 5.10116 34.7076 6.48716 41.1428C7.87317 47.5781 11.3954 53.3553 16.481 57.5349C21.5667 61.7146 27.9167 64.051 34.4985 64.1642C41.0804 64.2774 47.507 62.1607 52.7333 58.1583" stroke="black" stroke-width="5.83333" stroke-linecap="round" stroke-linejoin="round"/>
</g>
</svg>
